<svg viewBox="0 0 24 24" xmlns="http://www.w3.org/2000/svg"><path fill="currentColor" d="M12 .5C5.73.5.98 5.24.98 11.5c0 4.86 3.15 8.98 7.51 10.43.55.1.75-.24.75-.53 0-.26-.01-1.12-.02-2.03-3.05.66-3.7-1.3-3.7-1.3-.5-1.27-1.22-1.61-1.22-1.61-.99-.67.08-.66.08-.66 1.1.08 1.68 1.13 1.68 1.13.98 1.68 2.57 1.2 3.2.92.1-.71.38-1.2.69-1.47-2.44-.28-5-1.22-5-5.44 0-1.2.43-2.17 1.13-2.94-.11-.28-.49-1.4.11-2.91 0 0 .92-.29 3.02 1.12a10.5 10.5 0 0 1 5.5 0c2.1-1.41 3.02-1.12 3.02-1.12.6 1.51.22 2.63.11 2.91.7.77 1.13 1.75 1.13 2.94 0 4.23-2.56 5.15-5.01 5.42.39.34.74 1.01.74 2.04 0 1.47-.01 2.65-.01 3.01 0 .29.2.64.76.53A10.52 10.52 0 0 0 23 11.5C23 5.24 18.27.5 12 .5z"/></svg>