<svg viewBox="0 0 24 24" xmlns="http://www.w3.org/2000/svg"><path fill="currentColor" d="M23 3a10.9 10.9 0 0 1-3.14 1.53A4.48 4.48 0 0 0 22.43 1a9 9 0 0 1-2.83 1.08A4.51 4.51 0 0 0 16 0c-2.5 0-4.5 2.17-4.5 4.84 0 .38.04.75.12 1.1A12.8 12.8 0 0 1 1.64.9 4.94 4.94 0 0 0 3.1 7.47a4.4 4.4 0 0 1-2.05-.6v.06c0 2.34 1.6 4.29 3.73 4.74a4.37 4.37 0 0 1-2.04.08 4.56 4.56 0 0 0 4.23 3.26A9.06 9.06 0 0 1 0 20.29a12.8 12.8 0 0 0 6.92 2.1c8.3 0 12.85-7.31 12.85-13.64 0-.21 0-.42-.02-.63A9.46 9.46 0 0 0 23 3z"/></svg>